# xmcd
#
# Track frame offsets:
# 150
# 3883
# 10357
# 30892
# 54871
# 69561
# 87324
# 105020
# 123875
# 143735
# 158014
# 171968
# 188802
# 208312
# 223898
# 235943
# 261193
# 279611
# 297112
# 313186
# 328405
# 346592
#
# Disc length: 4709 seconds
#
#
# Revision: 4
# Processed by: cddbd v1.5.2PL0 Copyright (c) Steve Scherf et al.
# Submitted via: FreeRIP 2.951 
#
DISCID=36126316
DTITLE=Das magische Baumhaus - 27 - Im Auftrag des Roten Ritters
DYEAR=2008
DGENRE=Hörspiel
TTITLE0=Magische Reise
TTITLE1=Wie alles anfing
TTITLE2=Eine königliche Einladung
TTITLE3=Das soll Camelot sein?
TTITLE4=Die Ritter der Tafelrunde 1
TTITLE5=Die Ritter der Tafelrunde 2
TTITLE6=Wer wird gehen?
TTITLE7=Die Reise in die Anderswelt 1
TTITLE8=Die Reise in die Anderswelt 2
TTITLE9=Ein guter Trick 1
TTITLE10=Ein guter Trick 2
TTITLE11=Die Anderswelt 1
TTITLE12=Die Anderswelt 2
TTITLE13=Die Geschenke der Ritter 1
TTITLE14=Die Geschenke der Ritter 2
TTITLE15=Die Kristallhöhle
TTITLE16=Ihre Pferde warten!
TTITLE17=Die Rückkehr
TTITLE18=Weihnachtszauber 1
TTITLE19=Weihnachtszauber 2
TTITLE20=Willkommen zu Hause
TTITLE21=Magische Reise (Reprise)
EXTD=Mary Pope Osborne
EXTT0=
EXTT1=
EXTT2=
EXTT3=
EXTT4=
EXTT5=
EXTT6=
EXTT7=
EXTT8=
EXTT9=
EXTT10=
EXTT11=
EXTT12=
EXTT13=
EXTT14=
EXTT15=
EXTT16=
EXTT17=
EXTT18=
EXTT19=
EXTT20=
EXTT21=
PLAYORDER=
